<svg xmlns="http://www.w3.org/2000/svg"
 xmlns:xlink="http://www.w3.org/1999/xlink"
 width="38px" height="31px"  viewBox="0 0 38 31">
<path fill-rule="evenodd"  fill="#e9e9e9"
 d="M9.84462,29.986572 C13.867081,29.986572 17.266403,26.898926 17.266403,22.632141 C17.266403,18.02887 13.867081,15.277954 9.84462,15.277954 C8.201614,15.277954 6.6718903,15.89563 5.538925,16.793884 C5.3122253,16.120117 5.198929,15.390503 5.198929,14.379944 C5.198929,9.888672 9.27803,5.060913 14.037018,3.0957642 C14.037018,3.0957642 12.960602,1.0186157 12.960602,1.0186157 C4.745636,4.8361206 1.0065308,11.292053 1.0065308,18.758728 C1.0065308,20.61139 1.3463135,23.81128 2.989441,26.337708 C4.4057465,28.526855 6.4452972,29.986572 9.84462,29.986572 ZM29.560364,29.986572 C33.639572,29.986572 36.982147,26.898926 36.982147,22.632141 C36.982147,18.02887 33.639572,15.277954 29.560364,15.277954 C27.917343,15.277954 26.444382,15.89563 25.25467,16.793884 C25.028076,16.120117 24.91478,15.390503 24.91478,14.379944 C24.91478,9.888672 28.993881,5.060913 33.75287,3.0957642 C33.75287,3.0957642 32.676453,1.0186157 32.676453,1.0186157 C24.461487,4.8361206 20.722275,11.292053 20.722275,18.758728 C20.722275,20.61139 21.062164,23.81128 22.70517,26.337708 C24.121597,28.526855 26.217789,29.986572 29.560364,29.986572 Z"/>
</svg>